<?xml version="1.0" ?><!DOCTYPE svg  PUBLIC '-//W3C//DTD SVG 1.1//EN'  'http://www.w3.org/Graphics/SVG/1.1/DTD/svg11.dtd'><svg height="1.70666in" style="shape-rendering:geometricPrecision; text-rendering:geometricPrecision; image-rendering:optimizeQuality; fill-rule:evenodd; clip-rule:evenodd" viewBox="0 0 1.70666 1.70666" width="1.70666in" xml:space="preserve" xmlns="http://www.w3.org/2000/svg" xmlns:xlink="http://www.w3.org/1999/xlink"><defs><style type="text/css">
   <![CDATA[
    .fil0 {fill:black}
   ]]>
  </style></defs><g id="Layer_x0020_1"><g id="_186036808"><g><path class="fil0" d="M0.85337 1.67058c-0.223205,0 -0.433024,-0.0869173 -0.590839,-0.244756 -0.157819,-0.157795 -0.244728,-0.367642 -0.244728,-0.590823 0,-0.223209 0.0869173,-0.433028 0.244728,-0.590843 0.157823,-0.157819 0.367661,-0.244756 0.590839,-0.244756 0.223181,0 0.433028,0.0869173 0.590843,0.244756 0.157819,0.157823 0.244728,0.367642 0.244728,0.590843 0,0.223181 -0.0869173,0.433028 -0.244728,0.590823 -0.157823,0.157819 -0.367642,0.244756 -0.590843,0.244756zm0 -1.63325c-0.439831,0 -0.79765,0.357843 -0.79765,0.797669 0,0.439807 0.357819,0.79765 0.79765,0.79765 0.439835,0 0.797654,-0.357843 0.797654,-0.79765 -7.87402e-006,-0.43985 -0.357819,-0.797669 -0.797654,-0.797669z" id="_186036136"/></g><g><path class="fil0" d="M0.85337 1.48496c-0.35839,0 -0.65,-0.291583 -0.65,-0.649976 0,-0.358417 0.291583,-0.65 0.65,-0.65 0.358421,0 0.650004,0.291583 0.650004,0.65 -1.1811e-005,0.358394 -0.29161,0.649976 -0.650004,0.649976zm0 -1.26205c-0.337484,0 -0.612075,0.274563 -0.612075,0.612075 0,0.337488 0.274563,0.612051 0.612075,0.612051 0.337516,0 0.612051,-0.274563 0.612051,-0.612051 0,-0.337488 -0.274563,-0.612075 -0.612051,-0.612075z" id="_186040816"/></g><g><path class="fil0" d="M0.853764 1.09593c-0.0203071,0 -0.0398386,-0.0086063 -0.053563,-0.0235748 -0.0137362,-0.0149961 -0.0205866,-0.0352598 -0.0187953,-0.0555472 0.00282677,-0.0320157 0.00790945,-0.0745197 0.0160748,-0.095374 0.0100984,-0.0264961 0.0257362,-0.0523465 0.047748,-0.0788661 0.0156181,-0.0186732 0.0427992,-0.0450354 0.083185,-0.0807008 0.0372559,-0.0327717 0.0616575,-0.0589449 0.0725118,-0.0778504 0.010189,-0.017874 0.0151614,-0.0368661 0.0151614,-0.0580079 0,-0.0390276 -0.0150197,-0.0727205 -0.0459055,-0.102961 -0.0309094,-0.0301024 -0.0677992,-0.0447323 -0.11274,-0.0447323 -0.0436299,0 -0.078815,0.0131496 -0.10752,0.0402283 -0.0210197,0.0197047 -0.0370748,0.0484331 -0.047748,0.0853937 -0.0106496,0.0368661 -0.046,0.0602165 -0.0840827,0.0555472 -0.0226969,-0.00278346 -0.0429409,-0.0153425 -0.0555197,-0.0344488 -0.0124882,-0.0189764 -0.0160276,-0.0423425 -0.00970866,-0.0640709 0.0167677,-0.0575472 0.0454449,-0.104598 0.085185,-0.139854 0.055311,-0.0486693 0.128409,-0.0733228 0.217366,-0.0733228 0.0943661,0 0.171071,0.0263819 0.227972,0.0784488 0.0573346,0.0528504 0.0863858,0.11748 0.0863858,0.192134 0,0.0434685 -0.0103701,0.084063 -0.0308425,0.120677 -0.0198976,0.0361339 -0.057378,0.0782835 -0.114516,0.128772 -0.0437913,0.0386378 -0.0620709,0.0589961 -0.0697126,0.0693228 -0.00983858,0.013315 -0.0172283,0.0290669 -0.0218701,0.0467835 -0.00292126,0.0107165 -0.00517323,0.0258504 -0.00666929,0.045122 -0.00294488,0.0374803 -0.034752,0.0668819 -0.0723976,0.0668819zm0.00364961 -0.655567c0.0545551,0 0.101382,0.0186969 0.139236,0.0555197 0.0380669,0.0372559 0.0573622,0.0810039 0.0573622,0.130102 0,0.0279173 -0.00659843,0.0530591 -0.0201654,0.0768583 -0.0131535,0.0228622 -0.0394213,0.0514528 -0.0803622,0.0874646 -0.0383622,0.0339016 -0.0650197,0.0596575 -0.0791378,0.0765197 -0.0189921,0.0228622 -0.0329528,0.0458346 -0.0414882,0.0682638 -0.00508661,0.0129685 -0.0100512,0.0439055 -0.013685,0.0850276 -0.000877953,0.0098937 0.00232283,0.0193268 0.009,0.0266102 0.00666535,0.00724016 0.015748,0.011248 0.0255984,0.011248 0.0179843,0 0.033189,-0.0140315 0.0346142,-0.0319882 0.00172047,-0.0219134 0.00430315,-0.0389173 0.00783858,-0.0519843 0.00587008,-0.0222165 0.0153189,-0.0422717 0.0280354,-0.0595157 0.0127008,-0.0171339 0.0379685,-0.042437 0.0751102,-0.0751811 0.0530354,-0.0468701 0.088874,-0.0868228 0.106441,-0.118724 0.0175669,-0.0314409 0.0260787,-0.0648543 0.0260787,-0.102276 0,-0.0645315 -0.0242441,-0.11826 -0.0741299,-0.164209 -0.0496339,-0.0454291 -0.117732,-0.0684882 -0.202319,-0.0684882 -0.0794606,0 -0.14413,0.0215039 -0.192252,0.0638465 -0.0342677,0.030378 -0.0591535,0.0714606 -0.0738701,0.122031 -0.00321654,0.0110394 -0.0014252,0.0229567 0.00494488,0.0326142 0.00646063,0.00982283 0.0168386,0.0162402 0.0284764,0.017689 0.0194567,0.0023937 0.037563,-0.00954331 0.0430118,-0.0284055 0.0125787,-0.0436102 0.0321535,-0.0780866 0.058189,-0.102504 0.0355236,-0.0334803 0.0804646,-0.0505197 0.133472,-0.0505197z" id="_186035680"/></g><g><path class="fil0" d="M0.84074 1.30487c-0.0460866,0 -0.0834134,-0.0373504 -0.0834134,-0.0832323 0,-0.0459055 0.0373543,-0.0832559 0.0832323,-0.0832559 0.0460866,0 0.0834134,0.0373504 0.0834134,0.0832559 0,0.0458819 -0.0373268,0.0832323 -0.0832323,0.0832323zm0 -0.128563c-0.0251811,0 -0.0455118,0.0203307 -0.0455118,0.0453307 0,0.0249724 0.0203307,0.0453071 0.0453031,0.0453071 0.025185,0 0.0455157,-0.0203346 0.0455157,-0.0453071 0,-0.025 -0.0203071,-0.0453307 -0.0453071,-0.0453307z" id="_186036064"/></g><g><path class="fil0" d="M1.61183 0.190232c-0.0522795,0 -0.0948268,-0.0425512 -0.0948268,-0.0948031 0,-0.0522756 0.0425472,-0.0948268 0.0948268,-0.0948268 0.0522756,0 0.0948268,0.0425512 0.0948268,0.0948268 0,0.0522795 -0.0425512,0.0948031 -0.0948268,0.0948031zm0 -0.151685c-0.031374,0 -0.0569016,0.0255039 -0.0569016,0.0569016 0,0.0313425 0.0255276,0.0569016 0.0569016,0.0569016 0.0313701,0 0.0568976,-0.0255315 0.0568976,-0.0569016 0,-0.0313898 -0.0255276,-0.0569016 -0.0568976,-0.0569016z" id="_186039520"/></g><g><path class="fil0" d="M0.132717 1.70727c-0.0732087,0 -0.132724,-0.0595433 -0.132724,-0.132724 0,-0.073185 0.0595433,-0.132728 0.132724,-0.132728 0.073185,0 0.132728,0.0595433 0.132728,0.132728 0,0.0731811 -0.0595197,0.132724 -0.132728,0.132724zm0 -0.227535c-0.0522756,0 -0.0948268,0.0425512 -0.0948268,0.0947992 0,0.0522795 0.0425236,0.0948268 0.0948268,0.0948268 0.0522795,0 0.0948268,-0.0425472 0.0948268,-0.0948268 0,-0.0522756 -0.0425472,-0.0947992 -0.0948268,-0.0947992z" id="_186037936"/></g></g></g></svg>